<?xml version="1.0" encoding="UTF-8"?>
<svg width="88px" height="88px" viewBox="0 0 88 88" version="1.1" xmlns="http://www.w3.org/2000/svg" xmlns:xlink="http://www.w3.org/1999/xlink">
    <title>资产估值icon</title>
    <g id="ETF估值工具" stroke="none" stroke-width="1" fill="none" fill-rule="evenodd">
        <g id="ETF详情" transform="translate(-60, -364)">
            <g id="数据组" transform="translate(30, 338)">
                <g id="资产估值icon" transform="translate(30, 26)">
                    <path d="M12,0 L76,0 C82.627417,-1.21743675e-15 88,5.372583 88,12 L88,76 C88,82.627417 82.627417,88 76,88 L12,88 C5.372583,88 8.11624501e-16,82.627417 0,76 L0,12 C-8.11624501e-16,5.372583 5.372583,1.21743675e-15 12,0 Z" id="矩形" fill="#D4E6FF"></path>
                    <g id="走势图svg" transform="translate(11, 22)" fill="#1678FF">
                        <path d="M11,18.6348242 C11.3028199,18.9706503 11.3028199,19.4785741 11,19.8144002 L9.81081086,20.9939762 L9.21621625,20.9939762 C8.72363796,20.9939762 8.32432437,20.5978906 8.32432437,20.1092942 C8.32432437,19.5195062 8.62162163,19.2246122 8.9189189,19.2246122 L9.51351352,18.6348242 L11,18.6348242 Z M33.9284204,17.5858359 C34.2441654,17.7111129 34.460612,18.0035892 34.4864865,18.3399302 L35.3783784,19.2246122 C35.6756757,19.8144002 35.6756757,20.4041882 35.0810811,20.6990822 L34.4864865,20.6990822 L33.8918919,20.1092942 L33,19.2246122 C32.4054054,18.9297183 32.7027028,18.3399302 33,17.7501422 C33.2525865,17.5242852 33.6126753,17.4605588 33.9284204,17.5858359 Z M13.6756757,15.6858842 C13.9784956,16.0217103 13.9784956,16.5296342 13.6756757,16.8654602 L12.7837838,18.0450362 L11.2972973,18.0450362 C11,17.7501422 10.7027027,17.1603542 11.2972973,16.8654602 L12.1891892,15.6858842 L13.6756757,15.6858842 Z M31.2527447,14.6368958 C31.5684897,14.7621729 31.7849363,15.0546492 31.8108108,15.3909902 L32.7027027,16.2756722 C33,16.8654602 33,17.4552482 32.4054054,17.7501422 L31.8108108,17.7501422 L31.2162163,17.1603542 L30.3243243,16.2756722 C29.7297297,15.9807782 30.027027,15.3909902 30.3243243,14.8012022 C30.5769107,14.5753452 30.9369996,14.5116188 31.2527447,14.6368958 Z M16.7972973,13.1792852 C16.8793937,13.5050161 16.6797369,13.8350875 16.3513514,13.9165202 L15.4594595,15.0960962 L13.972973,15.0960962 C13.7238571,14.9321871 13.574093,14.6553838 13.574093,14.3588612 C13.574093,14.0623386 13.7238571,13.7855353 13.972973,13.6216262 L14.8648649,12.7369442 L16.054054,12.7369442 C16.3824396,12.6555114 16.7152009,12.8535542 16.7972973,13.1792852 Z M29.1351352,12.4420502 L30.027027,13.3267322 C30.3748653,13.75767 30.3748653,14.3702644 30.027027,14.8012022 L29.1351352,14.8012022 L28.5405405,14.2114142 L27.6486487,13.3267322 C27.0540541,13.0318382 27.3513514,12.4420502 27.6486487,11.8522622 C27.9459459,11.2624742 28.8378378,11.8522622 29.1351352,12.4420502 Z M18.7297298,9.78800423 C18.9421579,9.7353265 19.166782,9.79906322 19.3189881,9.95520539 C19.4711942,10.1113476 19.5278588,10.3361735 19.4676367,10.5449934 C19.4074147,10.7538133 19.2394552,10.9149025 19.027027,10.9675802 L18.1351352,12.1471562 L16.6486487,12.1471562 C16.054054,11.8522623 16.054054,11.2624742 16.3513514,10.6726862 L17.2432433,9.78800423 C17.8378379,9.49311026 18.4324324,9.19821621 18.7297298,9.78800423 Z M26.4594595,9.49311018 L27.3513514,10.3777922 C27.6168866,10.8339948 27.6168866,11.3960596 27.3513514,11.8522622 L26.4594595,11.8522622 L25.8648649,11.2624742 L24.972973,10.3777922 C24.6251348,9.94685439 24.6251348,9.33426002 24.972973,8.90332224 C25.5675676,8.90332224 26.1621622,8.90332224 26.4594595,9.49311018 Z M23.7837838,6.54417024 L24.6756757,7.42885223 C24.9412109,7.88505484 24.9412109,8.44711963 24.6756757,8.90332224 L23.1891892,8.90332224 L22.2972973,8.01864017 C22.2081415,7.94064775 22.1322492,7.85073045 22.0711968,7.75235219 C21.9899216,7.88339276 21.8582305,7.98007253 21.7027028,8.01864017 L20.8108108,9.19821621 L19.9189189,9.19821621 C19.6216216,9.19821621 19.3243243,9.19821621 19.3243244,8.90332224 C19.3243245,8.60842827 18.7297298,8.31353422 19.027027,7.7237462 L19.9189189,6.83906421 C20.5135135,6.54417024 21.1081081,6.24927619 21.4054054,6.83906421 C21.5823632,6.79518238 21.7677841,6.83208393 21.9127562,6.93589023 C21.9565587,6.67253806 22.0916412,6.42918166 22.2972973,6.24927619 C22.8918919,5.95438222 23.4864864,5.95438222 23.7837838,6.54417024 Z M1.18918923,20.9939762 C0.594594615,20.9939762 0,20.6990822 0,20.1092942 C0,19.5195062 0.594594615,19.2246122 1.18918923,19.2246122 L1.78378376,19.2246122 C2.37837838,19.2246122 2.97297299,19.5195062 2.97297299,20.1092942 C2.97297299,20.6990822 2.37837838,20.9939762 1.78378376,20.9939762 L1.18918923,20.9939762 Z M4.42339126,19.4837296 C4.59065345,19.3178195 4.81750966,19.2246122 5.05405411,19.2246122 L6.54054052,19.2246122 C7.03311881,19.2246122 7.4324324,19.6206978 7.4324324,20.1092942 C7.4324324,20.5978906 7.03311881,20.9939762 6.54054052,20.9939762 L5.05405411,20.9939762 C4.81750966,20.9939762 4.59065345,20.9007689 4.42339126,20.7348589 C4.25612906,20.5689488 4.16216214,20.3439265 4.16216214,20.1092942 C4.16216214,19.8746619 4.25612906,19.6496396 4.42339126,19.4837296 Z M43.7027027,28.9561142 L42.8108108,29.5459022 L42.2162162,29.5459022 L41.0270271,28.6612202 C40.6986415,28.6612202 40.4324324,28.3971631 40.4324324,28.0714322 C40.4324324,27.7457013 40.6986415,27.4816442 41.0270271,27.4816442 C41.4614769,27.1366178 42.0790637,27.1366178 42.5135136,27.4816442 L43.4054054,27.4816442 C43.8484071,27.8386691 43.9731909,28.4575449 43.7027027,28.9561142 Z M46.3783784,31.3152662 L45.7837838,31.3152662 L44.5945946,30.4305842 C44.2972973,30.4305842 44,29.8407962 44.2972973,29.2510082 C44.5945947,28.6612201 45.1891892,28.6612201 45.7837838,28.9561142 L46.972973,29.5459022 C47.2702702,29.8407962 47.5675676,30.4305842 47.2702703,30.7254782 L46.3783784,31.3152662 Z M49.3513513,32.7897362 L48.1621622,32.1999482 C47.9290708,31.8097917 47.9421257,31.3216302 48.1957425,30.9442801 C48.4493594,30.5669301 48.8986213,30.3672224 49.3513513,30.4305842 L50.5405406,31.0203722 C50.8385712,31.1983018 51.0431204,31.4967455 51.1003065,31.8370886 C51.1574926,32.1774316 51.0615816,32.5255472 50.8378378,32.7897362 L49.3513513,32.7897362 Z M52.918919,33.3795242 C52.918919,33.6744182 52.6216217,33.6744182 52.3243243,33.6744182 L51.4324325,33.0846302 C51.1351352,32.7897362 51.4324325,32.1999482 52.0270271,31.9050542 L53.2162162,31.0203722 C53.6967336,30.9582756 54.1671772,31.1915958 54.4054055,31.6101602 C54.733791,31.6915929 54.9334478,32.0216643 54.8513514,32.3473952 C54.769255,32.6731261 54.4364936,32.8711689 54.1081081,32.7897362 L52.918919,33.3795242 Z M56.4864865,31.6101602 L55,31.6101602 C54.7850301,31.0401151 55.0425884,30.4014248 55.5945946,30.1356902 L56.7837838,29.5459022 C56.8368909,29.3351913 56.9992929,29.1685895 57.2098146,29.1088543 C57.4203363,29.0491191 57.6469945,29.1053256 57.8044092,29.2563013 C57.9618239,29.407277 58.02608,29.6300852 57.972973,29.8407962 C58.2702702,30.1356902 58.2702702,30.7254782 57.6756757,31.0203722 L56.4864865,31.6101602 Z M59.4594595,29.8407962 C59.0809217,29.6330506 58.845984,29.2377846 58.845984,28.8086672 C58.845984,28.3795498 59.0809217,27.9842837 59.4594595,27.7765382 L60.945946,27.7765382 C61.2613386,27.7765382 61.5638135,27.9008146 61.7868297,28.122028 C62.0098459,28.3432414 62.1351351,28.6432712 62.1351351,28.9561142 C61.9962782,29.490698 61.5022088,29.8582546 60.945946,29.8407962 L59.4594595,29.8407962 Z M65.1081081,29.8407962 L63.6216216,29.8407962 C63.1290433,29.8407962 62.7297297,29.4447106 62.7297297,28.9561142 C62.7297297,28.3663262 63.027027,27.7765382 63.6216216,27.7765382 L65.1081081,27.7765382 C65.7027027,27.7765382 66,28.3663262 66,28.9561142 C66,29.4447106 65.6006864,29.8407962 65.1081081,29.8407962 Z" id="形状结合"></path>
                        <path d="M39.8378378,26.8918562 L39.2432433,26.8918562 L35.3783784,41.9314501 C35.2276997,43.1180539 34.2056894,44.0050839 33,43.9957082 C31.8104289,44.0626308 30.7195735,43.3412727 30.3243243,42.2263442 L23.7837838,22.1735522 L21.4054054,25.7122802 C20.9379791,26.4089151 20.1667021,26.846082 19.3243244,26.8918562 L6.83783787,26.8918562 C5.68848854,26.8918562 4.75675676,25.9676564 4.75675676,24.8275982 C4.90565233,23.8039742 5.79524016,23.0476343 6.83783787,23.0582342 L18.4324324,23.0582342 L22.2972973,17.7501422 C22.9186275,16.9183512 23.9341741,16.4706458 24.972973,16.5705662 C25.8943986,16.8296332 26.6550245,17.476328 27.0540541,18.3399302 L32.7027027,36.0335702 L35.972973,23.0582342 L35.3783784,22.4684462 C35.0810812,22.1735522 35.0810812,21.5837642 35.6756757,20.9939762 L36.5675676,20.9939762 L41.3243243,2.12076021 C41.6216216,0.646290204 42.8108108,-0.238391786 43.7027027,0.0565021841 C44.9762992,0.0249942793 46.0956651,0.888574226 46.3783784,2.12076021 L50.8378378,22.1735522 L59.7567568,22.1735522 C60.7993545,22.1629523 61.6889423,22.9192922 61.8378379,23.9429162 C61.8378379,25.0829744 60.9061061,26.0071742 59.7567568,26.0071742 L49.6486487,26.0071742 C48.4099133,25.9402281 47.3433075,25.1173521 46.972973,23.9429162 L43.7027027,8.90332224 L39.8378378,24.2378102 L40.7297298,25.1224922 C41.0270271,25.7122802 41.0270271,26.3020681 40.4324324,26.5969622 L39.8378378,26.8918562 Z" id="路径"></path>
                    </g>
                </g>
            </g>
        </g>
    </g>
</svg>